<svg data-v-423bf9ae="" xmlns="http://www.w3.org/2000/svg" viewBox="0 0 343 90" class="iconLeft"><!----><!----><!----><g data-v-423bf9ae="" id="5a8d06bc-9c33-4956-933a-ba8b2614b95a" fill="#000000" transform="matrix(4.454342896107062,0,0,4.454342896107062,105.06032726104183,-6.336303732944607)"><path d="M6.86 13.34L6.86 10.60C6.86 8.69 6.15 7.70 4.62 7.70C3.56 7.70 2.74 8.27 2.34 9.28L2.35 7.49C2.37 6.38 2.39 5.66 2.58 5.08C2.45 4.97 2.11 4.77 1.72 4.80C1.36 4.82 1.09 5.04 1.11 5.49L1.11 14.43C1.11 14.91 1.43 15.19 1.85 15.19C2.20 15.19 2.45 15.02 2.58 14.91C2.35 14.34 2.35 13.83 2.35 11.66C2.35 9.30 3.33 8.37 4.23 8.37C5.26 8.37 5.60 9.21 5.60 10.77L5.61 14.49C5.61 14.92 5.91 15.19 6.34 15.19C6.66 15.19 6.89 15.05 7.06 14.90C6.90 14.45 6.86 13.82 6.86 13.34ZM15.36 13.92C15.25 14.10 15.05 14.18 14.91 14.18C14.59 14.18 14.42 13.94 14.42 13.44L14.42 10.72C14.42 8.64 13.52 7.70 11.56 7.70C9.88 7.70 8.82 8.29 8.82 9.39C8.82 10.04 9.24 10.64 9.94 10.64C10.21 10.64 10.50 10.56 10.68 10.35C10.25 10.18 10.09 9.72 10.09 9.35C10.09 8.50 10.79 8.23 11.45 8.23C12.67 8.23 13.12 9.04 13.12 10.65L13.12 11.00C12.45 10.98 11.62 11.05 10.84 11.26C9.53 11.62 8.50 12.36 8.50 13.55C8.50 14.55 9.17 15.18 10.26 15.18C11.55 15.18 12.61 14.34 13.19 13.09L13.19 13.31C13.19 14.62 13.64 15.16 14.48 15.16C15.06 15.16 15.51 14.83 15.51 14.39C15.51 14.25 15.47 14.08 15.36 13.92ZM10.86 14.31C10.15 14.34 9.88 13.82 9.88 13.27C9.88 12.57 10.35 12.07 11.10 11.77C11.65 11.54 12.52 11.45 13.16 11.48C13.13 12.96 11.89 14.27 10.86 14.31ZM19.80 7.70C18.90 7.70 18.26 8.25 17.93 9.28C17.95 8.23 17.51 7.71 16.79 7.71C16.23 7.71 15.89 8.01 15.89 8.43C15.89 8.60 15.95 8.74 16.06 8.89C16.14 8.72 16.32 8.69 16.42 8.69C16.69 8.69 16.81 8.89 16.81 9.41L16.81 14.41C16.81 14.88 17.15 15.16 17.54 15.16C17.91 15.15 18.17 14.98 18.28 14.87C18.07 14.29 18.07 13.80 18.07 11.66C18.07 9.30 18.75 8.37 19.47 8.37C19.96 8.37 20.24 8.64 20.24 9.21C20.24 9.53 20.20 9.77 19.98 10.11C20.09 10.23 20.29 10.30 20.55 10.29C21.03 10.26 21.43 9.83 21.43 9.18C21.43 8.25 20.75 7.70 19.80 7.70ZM26.05 7.70C25.16 7.70 24.51 8.25 24.19 9.28C24.21 8.23 23.77 7.71 23.04 7.71C22.48 7.71 22.15 8.01 22.15 8.43C22.15 8.60 22.20 8.74 22.32 8.89C22.40 8.72 22.58 8.69 22.68 8.69C22.95 8.69 23.07 8.89 23.07 9.41L23.07 14.41C23.07 14.88 23.41 15.16 23.80 15.16C24.16 15.15 24.43 14.98 24.54 14.87C24.33 14.29 24.33 13.80 24.33 11.66C24.33 9.30 25.00 8.37 25.73 8.37C26.22 8.37 26.50 8.64 26.50 9.21C26.50 9.53 26.46 9.77 26.24 10.11C26.35 10.23 26.54 10.30 26.81 10.29C27.29 10.26 27.69 9.83 27.69 9.18C27.69 8.25 27.01 7.70 26.05 7.70ZM34.64 8.46C34.64 7.98 34.31 7.70 33.91 7.70C33.54 7.70 33.29 7.88 33.18 7.98C33.39 8.55 33.39 9.04 33.39 11.16C33.39 13.54 32.47 14.46 31.47 14.46C30.56 14.46 30.24 13.71 30.24 12.05L30.24 8.40C30.24 7.95 29.93 7.70 29.51 7.70C29.18 7.70 28.95 7.85 28.78 7.99C28.94 8.44 28.98 9.04 28.98 9.55L28.98 12.22C28.98 14.36 29.71 15.13 31.11 15.13C32.33 15.13 33.14 14.48 33.52 13.36C33.49 13.73 33.46 14.13 33.46 14.39C33.46 16.56 32.77 17.77 31.29 17.77C30.63 17.77 30.02 17.44 30.02 16.72C30.02 16.52 30.10 16.23 30.37 16.04C30.25 15.89 30.03 15.81 29.78 15.81C29.20 15.81 28.84 16.23 28.84 16.76C28.84 17.89 30.06 18.26 31.29 18.26C33.22 18.26 34.65 17.26 34.65 14.32ZM38.08 15.16C38.64 15.16 39.13 14.85 39.13 14.39C39.13 14.25 39.09 14.08 38.96 13.92C38.88 14.10 38.65 14.18 38.47 14.18C38.12 14.18 37.94 13.93 37.94 13.44L37.95 7.81C37.95 6.43 37.97 5.67 38.15 5.08C38.04 4.97 37.79 4.79 37.42 4.79C36.99 4.79 36.68 5.04 36.68 5.49L36.68 13.52C36.68 14.55 37.20 15.16 38.08 15.16ZM45.77 13.17C45.47 13.93 44.69 14.36 43.68 14.36C42.46 14.36 41.52 13.72 41.40 11.79C41.89 11.84 42.38 11.87 42.88 11.87C44.81 11.87 46.03 11.14 46.03 9.74C46.03 8.40 44.93 7.70 43.41 7.70C41.22 7.70 40.03 9.16 40.03 11.48C40.03 13.90 41.31 15.20 43.36 15.20C44.56 15.20 45.53 14.76 45.88 13.89C46.07 13.43 45.95 13.24 45.77 13.17ZM43.36 8.23C44.00 8.23 44.67 8.51 44.67 9.56C44.67 11.00 43.55 11.33 42.32 11.33C42 11.31 41.68 11.30 41.38 11.27C41.40 9.28 42.17 8.23 43.36 8.23ZM52.96 13.17C52.67 13.93 51.88 14.36 50.88 14.36C49.66 14.36 48.72 13.72 48.59 11.79C49.08 11.84 49.57 11.87 50.08 11.87C52.01 11.87 53.23 11.14 53.23 9.74C53.23 8.40 52.12 7.70 50.61 7.70C48.41 7.70 47.22 9.16 47.22 11.48C47.22 13.90 48.51 15.20 50.55 15.20C51.76 15.20 52.72 14.76 53.07 13.89C53.27 13.43 53.14 13.24 52.96 13.17ZM50.55 8.23C51.20 8.23 51.87 8.51 51.87 9.56C51.87 11.00 50.75 11.33 49.52 11.33C49.20 11.31 48.87 11.30 48.58 11.27C48.59 9.28 49.36 8.23 50.55 8.23Z"></path></g><defs data-v-423bf9ae=""><linearGradient data-v-423bf9ae="" gradientTransform="rotate(25)" id="6813edf8-7a79-4a0e-826e-c8e334ab9a01" x1="0%" y1="0%" x2="100%" y2="0%"><stop data-v-423bf9ae="" offset="0%" style="stop-color: rgb(0, 118, 221); stop-opacity: 1;"></stop><stop data-v-423bf9ae="" offset="100%" style="stop-color: rgb(0, 205, 233); stop-opacity: 1;"></stop></linearGradient></defs><g data-v-423bf9ae="" id="905856ca-5f74-4ba8-83cd-10f029c5640d" transform="matrix(2.8125,0,0,2.8125,0,0)" stroke="none" fill="url(#6813edf8-7a79-4a0e-826e-c8e334ab9a01)"><path d="M4.029 14.362L14.362 4.028l.707.707L4.736 15.07zM17.135 27.47L27.47 17.135l.707.707-10.333 10.333zM4.029 17.841l.707-.707 10.333 10.334-.707.707zM17.135 4.735l.708-.707L28.176 14.36l-.707.707z"></path><g><path d="M16 1.414l1.683 1.683L16 4.779l-1.683-1.683L16 1.414M16 0l-3.097 3.097L16 6.194l3.097-3.097L16 0zM16 27.221l1.683 1.683L16 30.586l-1.683-1.683L16 27.221m0-1.415l-3.097 3.097L16 32l3.097-3.097L16 25.806zM3.097 14.317L4.779 16l-1.683 1.683L1.414 16l1.683-1.683m0-1.414L0 16l3.097 3.097L6.194 16l-3.097-3.097zM28.903 14.317L30.586 16l-1.683 1.683L27.221 16l1.682-1.683m0-1.414L25.806 16l3.097 3.097L32 16l-3.097-3.097z"></path></g></g><!----></svg>